<svg width="83" height="19" viewBox="0 0 83 19" fill="none" xmlns="http://www.w3.org/2000/svg">
<path d="M12.92 0.863999C12.92 0.863999 12.92 0.903999 12.92 0.983999C12.92 1.048 12.92 1.08 12.92 1.08L2.216 18H0.44V17.784L10.52 1.896H0.776V1.176H10.376C10.696 1.176 11.032 1.16 11.384 1.128C11.752 1.096 12.072 1.056 12.344 1.008C12.632 0.96 12.824 0.911999 12.92 0.863999ZM13.088 17.28L12.944 18H1.976V17.28H13.088ZM13.808 14.304L13.016 18H9.848L10.016 17.4L10.28 17.28C11.176 17.28 11.888 16.992 12.416 16.416C12.96 15.84 13.344 15.136 13.568 14.304H13.808ZM2.432 1.896C2.032 1.912 1.696 2.056 1.424 2.328C1.152 2.6 1.016 2.936 1.016 3.336V3.768H0.776V1.824H2.432V1.896ZM0.776 0.743999C0.936 0.807999 1.176 0.871999 1.496 0.935999C1.832 1 2.2 1.056 2.6 1.104C3 1.152 3.368 1.176 3.704 1.176L0.776 1.44V0.743999ZM18.6408 3.6V12.672C18.6408 14.224 19.0328 15.448 19.8168 16.344C20.6168 17.24 21.7048 17.688 23.0808 17.688C24.6008 17.688 25.7928 17.264 26.6568 16.416C27.5368 15.568 27.9768 14.408 27.9768 12.936V3.6H29.0808V12.936C29.0808 14.6 28.5448 15.92 27.4728 16.896C26.4168 17.856 24.9608 18.336 23.1048 18.336C21.2648 18.336 19.8008 17.856 18.7128 16.896C17.6408 15.936 17.1048 14.624 17.1048 12.96V3.6H18.6408ZM17.1528 3.6V4.872H17.1048C17.0888 4.584 16.9688 4.344 16.7448 4.152C16.5368 3.944 16.2728 3.84 15.9528 3.84C15.9528 3.84 15.8888 3.84 15.7608 3.84C15.6488 3.84 15.5928 3.84 15.5928 3.84V3.6H17.1528ZM20.1528 3.6V3.84C20.1528 3.84 20.0888 3.84 19.9608 3.84C19.8488 3.84 19.7928 3.84 19.7928 3.84C19.4888 3.84 19.2168 3.944 18.9768 4.152C18.7528 4.344 18.6408 4.584 18.6408 4.872H18.5928V3.6H20.1528ZM28.0248 3.6V4.872H27.9768C27.9768 4.584 27.8648 4.344 27.6408 4.152C27.4168 3.944 27.1448 3.84 26.8248 3.84C26.8248 3.84 26.7608 3.84 26.6328 3.84C26.5208 3.84 26.4648 3.84 26.4648 3.84V3.6H28.0248ZM30.5928 3.6V3.84C30.5928 3.84 30.5288 3.84 30.4008 3.84C30.2888 3.84 30.2328 3.84 30.2328 3.84C29.9288 3.84 29.6648 3.944 29.4408 4.152C29.2168 4.344 29.0968 4.584 29.0808 4.872H29.0328V3.6H30.5928ZM35.7095 3.6H38.3735C39.4935 3.6 40.4615 3.768 41.2775 4.104C42.0935 4.424 42.7255 4.896 43.1735 5.52C43.6215 6.128 43.8455 6.856 43.8455 7.704C43.8455 8.616 43.6375 9.4 43.2215 10.056C42.8215 10.696 42.2855 11.192 41.6135 11.544C40.9415 11.88 40.1975 12.048 39.3815 12.048C38.5655 12.032 37.7495 11.824 36.9335 11.424V11.184C36.9335 11.184 37.0615 11.208 37.3175 11.256C37.5895 11.304 37.9335 11.328 38.3495 11.328C38.7655 11.312 39.2055 11.24 39.6695 11.112C40.1335 10.968 40.5655 10.712 40.9655 10.344C41.3815 9.976 41.7095 9.448 41.9495 8.76C42.0135 8.584 42.0535 8.376 42.0695 8.136C42.1015 7.896 42.1175 7.672 42.1175 7.464C42.1175 6.488 41.7815 5.72 41.1095 5.16C40.4375 4.6 39.5095 4.32 38.3255 4.32H35.9735C35.9735 4.32 35.9495 4.264 35.9015 4.152C35.8695 4.024 35.8295 3.904 35.7815 3.792C35.7335 3.664 35.7095 3.6 35.7095 3.6ZM36.0215 3.6V18H34.4855V3.6H36.0215ZM34.5335 16.464L34.8455 18H32.7575V17.76C32.7575 17.76 32.8135 17.76 32.9255 17.76C33.0375 17.76 33.0935 17.76 33.0935 17.76C33.4775 17.76 33.7975 17.632 34.0535 17.376C34.3255 17.12 34.4695 16.816 34.4855 16.464H34.5335ZM34.5335 5.112H34.4855C34.4695 4.744 34.3255 4.44 34.0535 4.2C33.7975 3.96 33.4775 3.84 33.0935 3.84C33.0935 3.84 33.0375 3.84 32.9255 3.84C32.8135 3.84 32.7575 3.84 32.7575 3.84V3.6H34.8455L34.5335 5.112ZM35.9495 16.464H35.9975C36.0135 16.816 36.1495 17.12 36.4055 17.376C36.6775 17.632 37.0055 17.76 37.3895 17.76C37.4055 17.76 37.4615 17.76 37.5575 17.76C37.6695 17.76 37.7255 17.76 37.7255 17.76V18H35.6375L35.9495 16.464ZM49.2871 3.6V18H47.7511V3.6H49.2871ZM55.7431 17.256L55.6951 18H49.2391V17.256H55.7431ZM57.0871 14.568L55.7671 18H52.1191L52.9351 17.256C53.7351 17.256 54.3751 17.144 54.8551 16.92C55.3511 16.68 55.7511 16.36 56.0551 15.96C56.3591 15.544 56.6231 15.08 56.8471 14.568H57.0871ZM47.7991 16.464L48.1111 18H46.0231V17.76C46.0231 17.76 46.0791 17.76 46.1911 17.76C46.3031 17.76 46.3591 17.76 46.3591 17.76C46.7591 17.76 47.0871 17.632 47.3431 17.376C47.5991 17.12 47.7351 16.816 47.7511 16.464H47.7991ZM49.2151 5.136V3.6H50.9911V3.84C50.9911 3.84 50.9431 3.84 50.8471 3.84C50.7511 3.84 50.7031 3.84 50.7031 3.84C50.3191 3.84 49.9831 3.968 49.6951 4.224C49.4231 4.464 49.2871 4.768 49.2871 5.136H49.2151ZM47.7991 5.136H47.7511C47.7351 4.768 47.5911 4.464 47.3191 4.224C47.0471 3.968 46.7111 3.84 46.3111 3.84C46.3111 3.84 46.2631 3.84 46.1671 3.84C46.0711 3.84 46.0231 3.84 46.0231 3.84V3.6H47.7991V5.136ZM61.7844 3.6V18H60.2724V3.6H61.7844ZM60.3444 16.464V18H58.3044V17.76C58.3044 17.76 58.3604 17.76 58.4724 17.76C58.5844 17.76 58.6404 17.76 58.6404 17.76C59.0884 17.76 59.4644 17.632 59.7684 17.376C60.0884 17.12 60.2564 16.816 60.2724 16.464H60.3444ZM61.7124 16.464H61.7844C61.8004 16.816 61.9604 17.12 62.2644 17.376C62.5844 17.632 62.9684 17.76 63.4164 17.76C63.4164 17.76 63.4644 17.76 63.5604 17.76C63.6724 17.76 63.7284 17.76 63.7284 17.76L63.7524 18H61.7124V16.464ZM61.7124 5.136V3.6H63.7524L63.7284 3.84C63.7284 3.84 63.6724 3.84 63.5604 3.84C63.4644 3.84 63.4164 3.84 63.4164 3.84C62.9684 3.84 62.5844 3.968 62.2644 4.224C61.9604 4.464 61.8004 4.768 61.7844 5.136H61.7124ZM60.3444 5.136H60.2724C60.2564 4.768 60.0884 4.464 59.7684 4.224C59.4644 3.968 59.0884 3.84 58.6404 3.84C58.6244 3.84 58.5604 3.84 58.4484 3.84C58.3524 3.84 58.3044 3.84 58.3044 3.84V3.6H60.3444V5.136ZM67.6389 3.24L80.9349 15.768L81.1749 18.336L67.8789 5.736L67.6389 3.24ZM67.6869 16.512V18H65.8869V17.76C65.8869 17.76 65.9509 17.76 66.0789 17.76C66.2229 17.76 66.2949 17.76 66.2949 17.76C66.6629 17.76 66.9749 17.64 67.2309 17.4C67.4869 17.16 67.6149 16.864 67.6149 16.512H67.6869ZM68.6949 16.512C68.6949 16.864 68.8229 17.16 69.0789 17.4C69.3509 17.64 69.6629 17.76 70.0149 17.76C70.0149 17.76 70.0789 17.76 70.2069 17.76C70.3509 17.76 70.4229 17.76 70.4229 17.76V18H68.6229V16.512H68.6949ZM67.6389 3.24L68.6709 4.584L68.6949 18H67.6149V6.24C67.6149 5.424 67.5749 4.72 67.4949 4.128C67.4309 3.536 67.3989 3.24 67.3989 3.24H67.6389ZM81.1749 3.6V15.264C81.1749 15.776 81.1909 16.272 81.2229 16.752C81.2549 17.216 81.2869 17.6 81.3189 17.904C81.3669 18.192 81.3909 18.336 81.3909 18.336H81.1749L80.1189 17.064V3.6H81.1749ZM81.1029 5.088V3.6H82.9029V3.84C82.9029 3.84 82.8309 3.84 82.6869 3.84C82.5589 3.84 82.4949 3.84 82.4949 3.84C82.1429 3.84 81.8309 3.96 81.5589 4.2C81.3029 4.44 81.1749 4.736 81.1749 5.088H81.1029ZM80.1189 5.088C80.1029 4.736 79.9669 4.44 79.7109 4.2C79.4549 3.96 79.1429 3.84 78.7749 3.84C78.7749 3.84 78.7029 3.84 78.5589 3.84C78.4309 3.84 78.3669 3.84 78.3669 3.84V3.6H80.1669V5.088H80.1189Z" fill="black"/>
</svg>
