<svg width="62" height="14" viewBox="0 0 62 14" fill="none" xmlns="http://www.w3.org/2000/svg">
<path d="M9.44 0.147999C9.44 0.147999 9.44 0.177999 9.44 0.237999C9.44 0.285999 9.44 0.309999 9.44 0.309999L1.412 13H0.08V12.838L7.64 0.922H0.332V0.381999H7.532C7.772 0.381999 8.024 0.37 8.288 0.346C8.564 0.321999 8.804 0.291999 9.008 0.256C9.224 0.22 9.368 0.183999 9.44 0.147999ZM9.566 12.46L9.458 13H1.232V12.46H9.566ZM10.106 10.228L9.512 13H7.136L7.262 12.55L7.46 12.46C8.132 12.46 8.666 12.244 9.062 11.812C9.47 11.38 9.758 10.852 9.926 10.228H10.106ZM1.574 0.922C1.274 0.934 1.022 1.042 0.818 1.246C0.614 1.45 0.512 1.702 0.512 2.002V2.326H0.332V0.868H1.574V0.922ZM0.332 0.0579993C0.452 0.105999 0.632 0.153999 0.872 0.202C1.124 0.25 1.4 0.291999 1.7 0.327999C2 0.363999 2.276 0.381999 2.528 0.381999L0.332 0.579999V0.0579993ZM13.7306 2.2V9.004C13.7306 10.168 14.0246 11.086 14.6126 11.758C15.2126 12.43 16.0286 12.766 17.0606 12.766C18.2006 12.766 19.0946 12.448 19.7426 11.812C20.4026 11.176 20.7326 10.306 20.7326 9.202V2.2H21.5606V9.202C21.5606 10.45 21.1586 11.44 20.3546 12.172C19.5626 12.892 18.4706 13.252 17.0786 13.252C15.6986 13.252 14.6006 12.892 13.7846 12.172C12.9806 11.452 12.5786 10.468 12.5786 9.22V2.2H13.7306ZM12.6146 2.2V3.154H12.5786C12.5666 2.938 12.4766 2.758 12.3086 2.614C12.1526 2.458 11.9546 2.38 11.7146 2.38C11.7146 2.38 11.6666 2.38 11.5706 2.38C11.4866 2.38 11.4446 2.38 11.4446 2.38V2.2H12.6146ZM14.8646 2.2V2.38C14.8646 2.38 14.8166 2.38 14.7206 2.38C14.6366 2.38 14.5946 2.38 14.5946 2.38C14.3666 2.38 14.1626 2.458 13.9826 2.614C13.8146 2.758 13.7306 2.938 13.7306 3.154H13.6946V2.2H14.8646ZM20.7686 2.2V3.154H20.7326C20.7326 2.938 20.6486 2.758 20.4806 2.614C20.3126 2.458 20.1086 2.38 19.8686 2.38C19.8686 2.38 19.8206 2.38 19.7246 2.38C19.6406 2.38 19.5986 2.38 19.5986 2.38V2.2H20.7686ZM22.6946 2.2V2.38C22.6946 2.38 22.6466 2.38 22.5506 2.38C22.4666 2.38 22.4246 2.38 22.4246 2.38C22.1966 2.38 21.9986 2.458 21.8306 2.614C21.6626 2.758 21.5726 2.938 21.5606 3.154H21.5246V2.2H22.6946ZM26.5321 2.2H28.5301C29.3701 2.2 30.0961 2.326 30.7081 2.578C31.3201 2.818 31.7941 3.172 32.1301 3.64C32.4661 4.096 32.6341 4.642 32.6341 5.278C32.6341 5.962 32.4781 6.55 32.1661 7.042C31.8661 7.522 31.4641 7.894 30.9601 8.158C30.4561 8.41 29.8981 8.536 29.2861 8.536C28.6741 8.524 28.0621 8.368 27.4501 8.068V7.888C27.4501 7.888 27.5461 7.906 27.7381 7.942C27.9421 7.978 28.2001 7.996 28.5121 7.996C28.8241 7.984 29.1541 7.93 29.5021 7.834C29.8501 7.726 30.1741 7.534 30.4741 7.258C30.7861 6.982 31.0321 6.586 31.2121 6.07C31.2601 5.938 31.2901 5.782 31.3021 5.602C31.3261 5.422 31.3381 5.254 31.3381 5.098C31.3381 4.366 31.0861 3.79 30.5821 3.37C30.0781 2.95 29.3821 2.74 28.4941 2.74H26.7301C26.7301 2.74 26.7121 2.698 26.6761 2.614C26.6521 2.518 26.6221 2.428 26.5861 2.344C26.5501 2.248 26.5321 2.2 26.5321 2.2ZM26.7661 2.2V13H25.6141V2.2H26.7661ZM25.6501 11.848L25.8841 13H24.3181V12.82C24.3181 12.82 24.3601 12.82 24.4441 12.82C24.5281 12.82 24.5701 12.82 24.5701 12.82C24.8581 12.82 25.0981 12.724 25.2901 12.532C25.4941 12.34 25.6021 12.112 25.6141 11.848H25.6501ZM25.6501 3.334H25.6141C25.6021 3.058 25.4941 2.83 25.2901 2.65C25.0981 2.47 24.8581 2.38 24.5701 2.38C24.5701 2.38 24.5281 2.38 24.4441 2.38C24.3601 2.38 24.3181 2.38 24.3181 2.38V2.2H25.8841L25.6501 3.334ZM26.7121 11.848H26.7481C26.7601 12.112 26.8621 12.34 27.0541 12.532C27.2581 12.724 27.5041 12.82 27.7921 12.82C27.8041 12.82 27.8461 12.82 27.9181 12.82C28.0021 12.82 28.0441 12.82 28.0441 12.82V13H26.4781L26.7121 11.848ZM36.7153 2.2V13H35.5633V2.2H36.7153ZM41.5573 12.442L41.5213 13H36.6793V12.442H41.5573ZM42.5653 10.426L41.5753 13H38.8393L39.4513 12.442C40.0513 12.442 40.5313 12.358 40.8913 12.19C41.2633 12.01 41.5633 11.77 41.7913 11.47C42.0193 11.158 42.2173 10.81 42.3853 10.426H42.5653ZM35.5993 11.848L35.8333 13H34.2673V12.82C34.2673 12.82 34.3093 12.82 34.3933 12.82C34.4773 12.82 34.5193 12.82 34.5193 12.82C34.8193 12.82 35.0653 12.724 35.2573 12.532C35.4493 12.34 35.5513 12.112 35.5633 11.848H35.5993ZM36.6613 3.352V2.2H37.9933V2.38C37.9933 2.38 37.9573 2.38 37.8853 2.38C37.8133 2.38 37.7773 2.38 37.7773 2.38C37.4893 2.38 37.2373 2.476 37.0213 2.668C36.8173 2.848 36.7153 3.076 36.7153 3.352H36.6613ZM35.5993 3.352H35.5633C35.5513 3.076 35.4433 2.848 35.2393 2.668C35.0353 2.476 34.7833 2.38 34.4833 2.38C34.4833 2.38 34.4473 2.38 34.3753 2.38C34.3033 2.38 34.2673 2.38 34.2673 2.38V2.2H35.5993V3.352ZM46.0883 2.2V13H44.9543V2.2H46.0883ZM45.0083 11.848V13H43.4783V12.82C43.4783 12.82 43.5203 12.82 43.6043 12.82C43.6883 12.82 43.7303 12.82 43.7303 12.82C44.0663 12.82 44.3483 12.724 44.5763 12.532C44.8163 12.34 44.9423 12.112 44.9543 11.848H45.0083ZM46.0343 11.848H46.0883C46.1003 12.112 46.2203 12.34 46.4483 12.532C46.6883 12.724 46.9763 12.82 47.3123 12.82C47.3123 12.82 47.3483 12.82 47.4203 12.82C47.5043 12.82 47.5463 12.82 47.5463 12.82L47.5643 13H46.0343V11.848ZM46.0343 3.352V2.2H47.5643L47.5463 2.38C47.5463 2.38 47.5043 2.38 47.4203 2.38C47.3483 2.38 47.3123 2.38 47.3123 2.38C46.9763 2.38 46.6883 2.476 46.4483 2.668C46.2203 2.848 46.1003 3.076 46.0883 3.352H46.0343ZM45.0083 3.352H44.9543C44.9423 3.076 44.8163 2.848 44.5763 2.668C44.3483 2.476 44.0663 2.38 43.7303 2.38C43.7183 2.38 43.6703 2.38 43.5863 2.38C43.5143 2.38 43.4783 2.38 43.4783 2.38V2.2H45.0083V3.352ZM50.4792 1.93L60.4512 11.326L60.6312 13.252L50.6592 3.802L50.4792 1.93ZM50.5152 11.884V13H49.1652V12.82C49.1652 12.82 49.2132 12.82 49.3092 12.82C49.4172 12.82 49.4712 12.82 49.4712 12.82C49.7472 12.82 49.9812 12.73 50.1732 12.55C50.3652 12.37 50.4612 12.148 50.4612 11.884H50.5152ZM51.2712 11.884C51.2712 12.148 51.3672 12.37 51.5592 12.55C51.7632 12.73 51.9972 12.82 52.2612 12.82C52.2612 12.82 52.3092 12.82 52.4052 12.82C52.5132 12.82 52.5672 12.82 52.5672 12.82V13H51.2172V11.884H51.2712ZM50.4792 1.93L51.2532 2.938L51.2712 13H50.4612V4.18C50.4612 3.568 50.4312 3.04 50.3712 2.596C50.3232 2.152 50.2992 1.93 50.2992 1.93H50.4792ZM60.6312 2.2V10.948C60.6312 11.332 60.6432 11.704 60.6672 12.064C60.6912 12.412 60.7152 12.7 60.7392 12.928C60.7752 13.144 60.7932 13.252 60.7932 13.252H60.6312L59.8392 12.298V2.2H60.6312ZM60.5772 3.316V2.2H61.9272V2.38C61.9272 2.38 61.8732 2.38 61.7652 2.38C61.6692 2.38 61.6212 2.38 61.6212 2.38C61.3572 2.38 61.1232 2.47 60.9192 2.65C60.7272 2.83 60.6312 3.052 60.6312 3.316H60.5772ZM59.8392 3.316C59.8272 3.052 59.7252 2.83 59.5332 2.65C59.3412 2.47 59.1072 2.38 58.8312 2.38C58.8312 2.38 58.7772 2.38 58.6692 2.38C58.5732 2.38 58.5252 2.38 58.5252 2.38V2.2H59.8752V3.316H59.8392Z" fill="black"/>
</svg>
